<svg fill="none" height="10" viewBox="0 0 59 10" width="59" xmlns="http://www.w3.org/2000/svg"><g fill="#fff"><path d="m51.6238.963173h1.2294v6.954357c0 .15669.1205.27721.2772.27721h4.363c.1567 0 .2772-.12052.2772-.27721v-.92805h1.2294v.92805c0 .15669-.1205.27721-.2772.27721h-.675c-.1566 0-.2772.12053-.2772.27721v.65084c0 .15669-.1205.27721-.2772.27721h-4.363c-.1567 0-.2772-.12052-.2772-.27721v-.65084c0-.15668-.1206-.27721-.2772-.27721h-.675c-.1567 0-.2772-.12052-.2772-.27721z"/><path d="m44.2492 4.85617c0-.15669.1205-.27721.2772-.27721h4.3631c.1566 0 .2772.12052.2772.27721v.65084c0 .15668.1205.27721.2772.27721h.6749c.1567 0 .2772.12053.2772.27721v3.33857h-1.2293v-3.33857c0-.15668-.1206-.27721-.2772-.27721h-4.3631c-.1567 0-.2772.12053-.2772.27721v3.33857h-1.2294v-3.33857c0-.15668.1206-.27721.2772-.27721h.675c.1567 0 .2772-.12053.2772-.27721zm-1.2294-.27721v-2.13332c0-.15668.1206-.27721.2772-.27721h.675c.1567 0 .2772-.12052.2772-.27721v-.65084c0-.15668.1205-.277207.2772-.277207h4.3631c.1566 0 .2772.120527.2772.277207v.65084c0 .15669.1205.27721.2772.27721h.6749c.1567 0 .2772.12053.2772.27721v2.13332h-1.2293v-2.13332c0-.15668-.1206-.27721-.2772-.27721h-4.3631c-.1567 0-.2772.12053-.2772.27721v2.13332z"/><path d="m35.9224 8.19474c-.1566 0-.2772-.12052-.2772-.27721v-.65084c0-.15668-.1205-.27721-.2772-.27721h-.6749c-.1567 0-.2772-.12052-.2772-.27721v-5.749097h1.2293v5.749097c0 .15669.1206.27721.2772.27721h.675c.1567 0 .2772.12053.2772.27721v.65084c0 .15669.1205.27721.2772.27721h1.9043c.1567 0 .2772-.12052.2772-.27721v-.65084c0-.15668.1206-.27721.2772-.27721h.675c.1567 0 .2772-.12052.2772-.27721v-5.749097h1.2294v5.749097c0 .15669-.1206.27721-.2772.27721h-.675c-.1567 0-.2772.12053-.2772.27721v.65084c0 .15669-.1205.27721-.2772.27721h-.675c-.1566 0-.2772.12053-.2772.27721v.65084c0 .15669-.1205.27721-.2772.27721h-1.9043c-.1567 0-.2772-.12052-.2772-.27721v-.65084c0-.15668-.1205-.27721-.2772-.27721z"/><path d="m25.8119 9.4v-1.20526h2.7962c.1567 0 .2772-.12052.2772-.27721v-5.47189c0-.15668-.1205-.27721-.2772-.27721h-2.7962v-1.205257h2.7962c.1567 0 .2772.120527.2772.277207v.65084c0 .15669.1205.27721.2772.27721h.675c.1567 0 .2772-.12052.2772-.27721v-.65084c0-.15668.1205-.277207.2772-.277207h2.7962v1.205257h-2.7962c-.1567 0-.2772.12053-.2772.27721v5.47189c0 .15669.1205.27721.2772.27721h2.7962v1.20526h-2.7962c-.1567 0-.2772-.12052-.2772-.27721v-.65084c0-.15668-.1205-.27721-.2772-.27721h-.675c-.1567 0-.2772.12053-.2772.27721v.65084c0 .15669-.1205.27721-.2772.27721z"/><path d="m24.3069 2.16843c.1567 0 .2772.12053.2772.27721v1.85611c0 .15668-.1205.27721-.2772.27721h-.6749c-.1567 0-.2772.12052-.2772.27721v.65084c0 .15668-.1206.27721-.2772.27721h-.675c-.1567 0-.2772-.12053-.2772-.27721v-.65084c0-.15669.1205-.27721.2772-.27721h.675c.1566 0 .2772-.12053.2772-.27721v-1.85611c0-.15668-.1206-.27721-.2772-.27721h-4.3631c-.1567 0-.2772.12053-.2772.27721v6.95436h-1.2294v-6.95436c0-.15668.1206-.27721.2772-.27721h.675c.1567 0 .2772-.12052.2772-.27721v-.65084c0-.15668.1205-.277207.2772-.277207h4.3631c.1566 0 .2772.120527.2772.277207v.65084c0 .15669.1205.27721.2772.27721zm-4.6402 3.33858v-.65084c0-.15669.1205-.27721.2772-.27721h.6749c.1567 0 .2772.12052.2772.27721v.65084c0 .15668.1206.27721.2772.27721h.675c.1567 0 .2772.12053.2772.27721v.65084c0 .15669.1205.27721.2772.27721h.675c.1566 0 .2772.12053.2772.27721v.65084c0 .15669.1205.27721.2772.27721h.6749c.1567 0 .2772.12053.2772.27721v.65084c0 .15669-.1205.27721-.2772.27721h-.6749c-.1567 0-.2772-.12052-.2772-.27721v-.65084c0-.15668-.1206-.27721-.2772-.27721h-.675c-.1567 0-.2772-.12052-.2772-.27721v-.65084c0-.15668-.1205-.27721-.2772-.27721h-.675c-.1566 0-.2772-.12052-.2772-.27721v-.65084c0-.15668-.1205-.27721-.2772-.27721h-.6749c-.1567 0-.2772-.12053-.2772-.27721z"/><path d="m15.703 2.16843c.1566 0 .2772.12053.2772.27721v1.85611c0 .15668-.1206.27721-.2772.27721h-.675c-.1567 0-.2772.12052-.2772.27721v.65084c0 .15668-.1205.27721-.2772.27721h-.675c-.1566 0-.2772-.12053-.2772-.27721v-.65084c0-.15669.1206-.27721.2772-.27721h.675c.1567 0 .2772-.12053.2772-.27721v-1.85611c0-.15668-.1205-.27721-.2772-.27721h-4.3631c-.15664 0-.27717.12053-.27717.27721v6.95436h-1.22936v-6.95436c0-.15668.12052-.27721.27721-.27721h.67494c.15669 0 .27721-.12052.27721-.27721v-.65084c0-.15668.12053-.277207.27717-.277207h4.3631c.1567 0 .2772.120527.2772.277207v.65084c0 .15669.1205.27721.2772.27721zm-4.6403 3.33858v-.65084c0-.15669.1205-.27721.2772-.27721h.675c.1566 0 .2772.12052.2772.27721v.65084c0 .15668.1205.27721.2772.27721h.6749c.1567 0 .2772.12053.2772.27721v.65084c0 .15669.1206.27721.2772.27721h.675c.1567 0 .2772.12053.2772.27721v.65084c0 .15669.1205.27721.2772.27721h.675c.1566 0 .2772.12053.2772.27721v.65084c0 .15669-.1206.27721-.2772.27721h-.675c-.1567 0-.2772-.12052-.2772-.27721v-.65084c0-.15668-.1205-.27721-.2772-.27721h-.675c-.1566 0-.2772-.12052-.2772-.27721v-.65084c0-.15668-.1205-.27721-.2772-.27721h-.6749c-.1567 0-.2772-.12052-.2772-.27721v-.65084c0-.15668-.1206-.27721-.2772-.27721h-.675c-.1567 0-.2772-.12053-.2772-.27721z"/><path d="m1.22937 4.85617c0-.15669.12052-.27721.27721-.27721h4.36304c.15669 0 .27721.12052.27721.27721v.65084c0 .15668.12053.27721.27721.27721h.67495c.15668 0 .27721.12053.27721.27721v3.33857h-1.22937v-3.33857c0-.15668-.12052-.27721-.27721-.27721h-4.36304c-.15669 0-.27721.12053-.27721.27721v3.33857h-1.22937v-3.33857c0-.15668.120526-.27721.27721-.27721h.674947c.156683 0 .277213-.12053.277213-.27721zm-1.22937-.27721v-2.13332c0-.15668.120526-.27721.27721-.27721h.674947c.156683 0 .277213-.12052.277213-.27721v-.65084c0-.15668.12052-.277207.27721-.277207h4.36304c.15669 0 .27721.120527.27721.277207v.65084c0 .15669.12053.27721.27721.27721h.67495c.15668 0 .27721.12053.27721.27721v2.13332h-1.22937v-2.13332c0-.15668-.12052-.27721-.27721-.27721h-4.36304c-.15669 0-.27721.12053-.27721.27721v2.13332z"/></g></svg>